<svg width="202" height="38" viewBox="0 0 202 38" fill="none" xmlns="http://www.w3.org/2000/svg">
<path d="M32.16 30V7.8H41.85C43.27 7.8 44.48 8.05 45.48 8.55C46.48 9.05 47.24 9.72 47.76 10.56C48.3 11.4 48.57 12.32 48.57 13.32C48.57 14.34 48.38 15.18 48 15.84C47.64 16.5 47.2 17.02 46.68 17.4C46.18 17.76 45.72 18.01 45.3 18.15V18.36C45.82 18.5 46.4 18.77 47.04 19.17C47.7 19.57 48.27 20.14 48.75 20.88C49.23 21.6 49.47 22.54 49.47 23.7C49.47 24.74 49.22 25.75 48.72 26.73C48.22 27.69 47.43 28.48 46.35 29.1C45.27 29.7 43.84 30 42.06 30H32.16ZM41.31 11.25H36.24V17.04H41.31C42.47 17.04 43.31 16.75 43.83 16.17C44.35 15.59 44.61 14.91 44.61 14.13C44.61 13.37 44.35 12.7 43.83 12.12C43.31 11.54 42.47 11.25 41.31 11.25ZM41.61 20.16H36.24V26.55H41.61C42.93 26.55 43.89 26.23 44.49 25.59C45.09 24.95 45.39 24.2 45.39 23.34C45.39 22.5 45.09 21.76 44.49 21.12C43.89 20.48 42.93 20.16 41.61 20.16ZM52.2073 30V14.1H56.1673V16.29H56.3173C56.5973 15.67 57.0573 15.1 57.6973 14.58C58.3373 14.06 59.2973 13.8 60.5773 13.8C60.9773 13.8 61.3073 13.83 61.5673 13.89C61.8273 13.93 61.9573 13.95 61.9573 13.95V17.82C61.9573 17.82 61.8073 17.8 61.5073 17.76C61.2273 17.72 60.8773 17.7 60.4573 17.7C59.0573 17.7 57.9973 18.09 57.2773 18.87C56.5573 19.65 56.1973 20.91 56.1973 22.65V30H52.2073ZM70.9181 30.3C69.5581 30.3 68.3781 30.07 67.3781 29.61C66.3981 29.13 65.5781 28.5 64.9181 27.72C64.2781 26.92 63.7981 26.03 63.4781 25.05C63.1581 24.07 62.9981 23.07 62.9981 22.05C62.9981 21.03 63.1481 20.04 63.4481 19.08C63.7681 18.1 64.2381 17.21 64.8581 16.41C65.4981 15.61 66.3081 14.98 67.2881 14.52C68.2681 14.04 69.4281 13.8 70.7681 13.8C72.2081 13.8 73.4781 14.12 74.5781 14.76C75.6781 15.4 76.5381 16.34 77.1581 17.58C77.7781 18.8 78.0881 20.32 78.0881 22.14V23.16H67.0181C67.0781 24.24 67.4481 25.18 68.1281 25.98C68.8081 26.76 69.7381 27.15 70.9181 27.15C71.5981 27.15 72.1581 27.04 72.5981 26.82C73.0381 26.6 73.3781 26.35 73.6181 26.07C73.8581 25.77 74.0281 25.52 74.1281 25.32C74.2281 25.1 74.2781 24.99 74.2781 24.99H77.9681C77.9681 24.99 77.9181 25.17 77.8181 25.53C77.7181 25.87 77.5281 26.31 77.2481 26.85C76.9881 27.37 76.5981 27.9 76.0781 28.44C75.5581 28.96 74.8781 29.4 74.0381 29.76C73.1981 30.12 72.1581 30.3 70.9181 30.3ZM67.0181 20.55H74.2481C74.1881 19.31 73.8181 18.39 73.1381 17.79C72.4581 17.19 71.6581 16.89 70.7381 16.89C69.7181 16.89 68.8681 17.22 68.1881 17.88C67.5081 18.52 67.1181 19.41 67.0181 20.55ZM88.5115 30.3C87.1515 30.3 85.9715 30.07 84.9715 29.61C83.9915 29.13 83.1715 28.5 82.5115 27.72C81.8715 26.92 81.3915 26.03 81.0715 25.05C80.7515 24.07 80.5915 23.07 80.5915 22.05C80.5915 21.03 80.7415 20.04 81.0415 19.08C81.3615 18.1 81.8315 17.21 82.4515 16.41C83.0915 15.61 83.9015 14.98 84.8815 14.52C85.8615 14.04 87.0215 13.8 88.3615 13.8C89.8015 13.8 91.0715 14.12 92.1715 14.76C93.2715 15.4 94.1315 16.34 94.7515 17.58C95.3715 18.8 95.6815 20.32 95.6815 22.14V23.16H84.6115C84.6715 24.24 85.0415 25.18 85.7215 25.98C86.4015 26.76 87.3315 27.15 88.5115 27.15C89.1915 27.15 89.7515 27.04 90.1915 26.82C90.6315 26.6 90.9715 26.35 91.2115 26.07C91.4515 25.77 91.6215 25.52 91.7215 25.32C91.8215 25.1 91.8715 24.99 91.8715 24.99H95.5615C95.5615 24.99 95.5115 25.17 95.4115 25.53C95.3115 25.87 95.1215 26.31 94.8415 26.85C94.5815 27.37 94.1915 27.9 93.6715 28.44C93.1515 28.96 92.4715 29.4 91.6315 29.76C90.7915 30.12 89.7515 30.3 88.5115 30.3ZM84.6115 20.55H91.8415C91.7815 19.31 91.4115 18.39 90.7315 17.79C90.0515 17.19 89.2515 16.89 88.3315 16.89C87.3115 16.89 86.4615 17.22 85.7815 17.88C85.1015 18.52 84.7115 19.41 84.6115 20.55ZM105.235 30.3C104.055 30.3 103.025 30.07 102.145 29.61C101.265 29.13 100.525 28.5 99.9248 27.72C99.3448 26.92 98.9048 26.03 98.6048 25.05C98.3248 24.07 98.1848 23.07 98.1848 22.05C98.1848 21.03 98.3248 20.03 98.6048 19.05C98.9048 18.07 99.3448 17.19 99.9248 16.41C100.525 15.61 101.265 14.98 102.145 14.52C103.025 14.04 104.055 13.8 105.235 13.8C106.255 13.8 107.095 13.97 107.755 14.31C108.415 14.63 108.935 14.99 109.315 15.39C109.695 15.77 109.955 16.08 110.095 16.32H110.275V7.2H114.265V30H110.275V27.78H110.095C109.955 28.02 109.695 28.34 109.315 28.74C108.935 29.14 108.415 29.5 107.755 29.82C107.095 30.14 106.255 30.3 105.235 30.3ZM106.285 27.03C107.185 27.03 107.935 26.79 108.535 26.31C109.135 25.81 109.585 25.18 109.885 24.42C110.185 23.66 110.335 22.87 110.335 22.05C110.335 21.23 110.185 20.44 109.885 19.68C109.585 18.92 109.135 18.3 108.535 17.82C107.935 17.32 107.185 17.07 106.285 17.07C105.385 17.07 104.625 17.32 104.005 17.82C103.405 18.3 102.955 18.92 102.655 19.68C102.355 20.44 102.205 21.23 102.205 22.05C102.205 22.87 102.355 23.66 102.655 24.42C102.955 25.18 103.405 25.81 104.005 26.31C104.625 26.79 105.385 27.03 106.285 27.03ZM117.988 35.88V14.1H121.978V16.32H122.188C122.328 16.08 122.578 15.76 122.938 15.36C123.318 14.96 123.838 14.6 124.498 14.28C125.158 13.96 125.998 13.8 127.018 13.8C128.218 13.8 129.258 14.04 130.138 14.52C131.018 14.98 131.748 15.61 132.328 16.41C132.908 17.19 133.338 18.07 133.618 19.05C133.918 20.03 134.068 21.03 134.068 22.05C134.068 23.07 133.918 24.07 133.618 25.05C133.338 26.03 132.908 26.92 132.328 27.72C131.748 28.5 131.018 29.13 130.138 29.61C129.258 30.07 128.218 30.3 127.018 30.3C125.998 30.3 125.158 30.14 124.498 29.82C123.838 29.48 123.318 29.11 122.938 28.71C122.578 28.31 122.328 28 122.188 27.78H121.978V35.88H117.988ZM121.918 22.05C121.918 22.87 122.068 23.66 122.368 24.42C122.668 25.18 123.118 25.81 123.718 26.31C124.318 26.79 125.068 27.03 125.968 27.03C126.888 27.03 127.648 26.79 128.248 26.31C128.848 25.81 129.298 25.18 129.598 24.42C129.898 23.66 130.048 22.87 130.048 22.05C130.048 21.23 129.898 20.44 129.598 19.68C129.298 18.92 128.848 18.3 128.248 17.82C127.648 17.32 126.888 17.07 125.968 17.07C125.068 17.07 124.318 17.32 123.718 17.82C123.118 18.3 122.668 18.92 122.368 19.68C122.068 20.44 121.918 21.23 121.918 22.05ZM144.485 30.3C143.125 30.3 141.945 30.07 140.945 29.61C139.965 29.13 139.145 28.5 138.485 27.72C137.845 26.92 137.365 26.03 137.045 25.05C136.725 24.07 136.565 23.07 136.565 22.05C136.565 21.03 136.715 20.04 137.015 19.08C137.335 18.1 137.805 17.21 138.425 16.41C139.065 15.61 139.875 14.98 140.855 14.52C141.835 14.04 142.995 13.8 144.335 13.8C145.775 13.8 147.045 14.12 148.145 14.76C149.245 15.4 150.105 16.34 150.725 17.58C151.345 18.8 151.655 20.32 151.655 22.14V23.16H140.585C140.645 24.24 141.015 25.18 141.695 25.98C142.375 26.76 143.305 27.15 144.485 27.15C145.165 27.15 145.725 27.04 146.165 26.82C146.605 26.6 146.945 26.35 147.185 26.07C147.425 25.77 147.595 25.52 147.695 25.32C147.795 25.1 147.845 24.99 147.845 24.99H151.535C151.535 24.99 151.485 25.17 151.385 25.53C151.285 25.87 151.095 26.31 150.815 26.85C150.555 27.37 150.165 27.9 149.645 28.44C149.125 28.96 148.445 29.4 147.605 29.76C146.765 30.12 145.725 30.3 144.485 30.3ZM140.585 20.55H147.815C147.755 19.31 147.385 18.39 146.705 17.79C146.025 17.19 145.225 16.89 144.305 16.89C143.285 16.89 142.435 17.22 141.755 17.88C141.075 18.52 140.685 19.41 140.585 20.55ZM161.208 30.3C160.028 30.3 158.998 30.07 158.118 29.61C157.238 29.13 156.498 28.5 155.898 27.72C155.318 26.92 154.878 26.03 154.578 25.05C154.298 24.07 154.158 23.07 154.158 22.05C154.158 21.03 154.298 20.03 154.578 19.05C154.878 18.07 155.318 17.19 155.898 16.41C156.498 15.61 157.238 14.98 158.118 14.52C158.998 14.04 160.028 13.8 161.208 13.8C162.228 13.8 163.068 13.97 163.728 14.31C164.388 14.63 164.908 14.99 165.288 15.39C165.668 15.77 165.928 16.08 166.068 16.32H166.248V7.2H170.238V30H166.248V27.78H166.068C165.928 28.02 165.668 28.34 165.288 28.74C164.908 29.14 164.388 29.5 163.728 29.82C163.068 30.14 162.228 30.3 161.208 30.3ZM162.258 27.03C163.158 27.03 163.908 26.79 164.508 26.31C165.108 25.81 165.558 25.18 165.858 24.42C166.158 23.66 166.308 22.87 166.308 22.05C166.308 21.23 166.158 20.44 165.858 19.68C165.558 18.92 165.108 18.3 164.508 17.82C163.908 17.32 163.158 17.07 162.258 17.07C161.358 17.07 160.598 17.32 159.978 17.82C159.378 18.3 158.928 18.92 158.628 19.68C158.328 20.44 158.178 21.23 158.178 22.05C158.178 22.87 158.328 23.66 158.628 24.42C158.928 25.18 159.378 25.81 159.978 26.31C160.598 26.79 161.358 27.03 162.258 27.03ZM176.062 11.64C175.362 11.64 174.782 11.41 174.322 10.95C173.882 10.49 173.662 9.94 173.662 9.3C173.662 8.66 173.882 8.11 174.322 7.65C174.782 7.19 175.362 6.96 176.062 6.96C176.762 6.96 177.342 7.19 177.802 7.65C178.262 8.11 178.492 8.66 178.492 9.3C178.492 9.94 178.262 10.49 177.802 10.95C177.342 11.41 176.762 11.64 176.062 11.64ZM174.082 30V14.1H178.072V30H174.082ZM188.426 13.8C189.446 13.8 190.286 13.97 190.946 14.31C191.606 14.63 192.126 14.99 192.506 15.39C192.886 15.77 193.146 16.08 193.286 16.32H193.466V14.1H197.456V30H193.466V27.78H193.286C193.146 28.02 192.886 28.34 192.506 28.74C192.126 29.14 191.606 29.5 190.946 29.82C190.286 30.14 189.446 30.3 188.426 30.3C187.246 30.3 186.216 30.07 185.336 29.61C184.456 29.13 183.716 28.5 183.116 27.72C182.536 26.92 182.096 26.03 181.796 25.05C181.516 24.07 181.376 23.07 181.376 22.05C181.376 21.03 181.516 20.03 181.796 19.05C182.096 18.07 182.536 17.19 183.116 16.41C183.716 15.61 184.456 14.98 185.336 14.52C186.216 14.04 187.246 13.8 188.426 13.8ZM189.476 17.07C188.576 17.07 187.816 17.32 187.196 17.82C186.596 18.3 186.146 18.92 185.846 19.68C185.546 20.44 185.396 21.23 185.396 22.05C185.396 22.87 185.546 23.66 185.846 24.42C186.146 25.18 186.596 25.81 187.196 26.31C187.816 26.79 188.576 27.03 189.476 27.03C190.376 27.03 191.126 26.79 191.726 26.31C192.326 25.81 192.776 25.18 193.076 24.42C193.376 23.66 193.526 22.87 193.526 22.05C193.526 21.23 193.376 20.44 193.076 19.68C192.776 18.92 192.326 18.3 191.726 17.82C191.126 17.32 190.376 17.07 189.476 17.07Z" fill="white"/>
<path fill-rule="evenodd" clip-rule="evenodd" d="M18.5658 3.07857C20.2598 -0.247612 24.2394 0.0197217 25.8703 1.28101C28.9578 3.66857 27.9903 7.22108 26.1032 7.0012C24.9204 6.86332 23.9576 4.01128 21.8445 5.65324C24.5069 13.881 20.8658 17.8281 15.9771 19.1875C15.7879 19.226 14.5704 19.3899 14.4503 19.8928C13.812 22.5648 15.9102 23.8656 17.1693 24.7913C20.4921 27.2349 23.1045 29.955 22.82 33.2907C24.2086 33.2178 24.7538 33.0556 25.2489 31.8869C25.5345 31.212 26.0012 30.9787 25.9804 31.9503C25.9354 34.0415 24.7886 35.5812 22.7017 35.6817C20.7539 35.6979 18.3042 35.6996 15.9728 35.6974H13.781C13.4789 35.6974 13.2968 35.562 13.2216 35.3733C13.1707 35.2457 13.162 35.0913 13.1924 34.9321C13.2243 34.7651 13.2989 34.5969 13.4128 34.4505C13.673 34.1169 14.1436 33.897 14.7944 34.0619C14.92 34.0934 15.0473 34.017 15.0786 33.8914C15.1005 33.8046 15.0704 33.7167 15.0081 33.6604C13.9258 32.5788 13.6168 31.5182 13.7752 30.6324C13.8562 30.1799 14.0589 29.7704 14.342 29.4255C14.6268 29.0785 14.9943 28.7967 15.402 28.6021C16.2223 28.2106 17.2006 28.178 17.9906 28.6855C18.0995 28.7553 18.2444 28.7238 18.3144 28.6148C18.3844 28.5057 18.3525 28.361 18.2436 28.291C17.3061 27.6889 16.1569 27.722 15.2002 28.1784C14.7334 28.401 14.311 28.7261 13.9806 29.1283C13.6487 29.5328 13.4105 30.015 13.3149 30.5497C13.1543 31.4471 13.3939 32.4851 14.2634 33.5378C13.7222 33.5652 13.309 33.8225 13.044 34.1624C12.8825 34.3697 12.777 34.6078 12.7317 34.844C12.6851 35.0877 12.702 35.333 12.7867 35.5456C12.8078 35.5984 12.8327 35.6491 12.8617 35.6972H9.53264C8.46958 35.6972 7.65397 34.8122 9.07802 33.8144C7.73132 26.3807 10.8994 21.1108 9.4347 19.6461C7.31286 19.4185 5.35128 18.8599 3.92955 18.0953C-0.766962 15.5691 -0.556566 10.6368 0.983155 10.5913C4.61857 10.4839 3.39131 8.02863 4.98278 5.10533C4.46798 4.40628 4.52475 4.27343 3.20455 5.09763C0.982798 6.48462 0.974558 2.72672 3.22424 0.976245C4.80067 -0.250303 7.45271 -0.875217 8.53869 2.54909C11.86 1.55675 15.4992 2.12903 18.5658 3.07857Z" fill="#0973EC"/>
<path fill-rule="evenodd" clip-rule="evenodd" d="M18.566 3.0786C20.2601 -0.247587 24.2396 0.0197465 25.8705 1.28103C28.958 3.66859 27.9905 7.2211 26.1034 7.00122C24.9206 6.86335 23.9578 4.0113 21.8447 5.65327C23.3015 10.1551 22.8709 13.3753 21.3819 15.5919C21.8121 12.963 20.7149 9.92918 14.6263 11.7695C10.3001 13.0772 7.2291 10.7632 8.30918 6.34318C8.8818 3.99985 11.0404 1.96449 12.9679 2.044C14.9098 2.12421 16.8295 2.54089 18.566 3.0786Z" fill="#F27108"/>
<path fill-rule="evenodd" clip-rule="evenodd" d="M3.89698 10.7531C4.90974 10.7343 5.78855 10.8685 5.80162 11.3849C5.81076 11.7428 5.3076 12.0017 4.92316 12.4372C4.48662 12.9316 4.31884 13.1815 4.19314 13.1803C3.57145 13.1744 2.60418 12.0814 2.58914 11.5546C2.5741 11.0276 2.88441 10.7719 3.89698 10.7531Z" fill="white"/>
<path fill-rule="evenodd" clip-rule="evenodd" d="M11.3012 10.4311C12.3905 10.6716 13.0353 9.16265 13.201 8.2781C13.4499 6.94985 10.6574 6.4073 10.3933 7.81703C10.2277 8.70157 10.2118 10.1908 11.3012 10.4311Z" fill="white"/>
<path fill-rule="evenodd" clip-rule="evenodd" d="M5.68428 10.0196C6.48825 10.1394 6.93697 8.76348 7.04422 7.97473C7.2052 6.79026 5.14549 6.548 4.97467 7.80498C4.8676 8.59391 4.88031 9.89996 5.68428 10.0196Z" fill="white"/>
</svg>
