<svg width="202" height="38" viewBox="0 0 202 38" fill="none" xmlns="http://www.w3.org/2000/svg">
<path d="M32.04 30V7.8H42.3C43.74 7.8 44.95 8.05 45.93 8.55C46.93 9.05 47.69 9.72 48.21 10.56C48.73 11.38 48.99 12.29 48.99 13.29C48.99 14.27 48.81 15.09 48.45 15.75C48.09 16.39 47.65 16.91 47.13 17.31C46.63 17.69 46.14 17.95 45.66 18.09V18.33C46.2 18.45 46.8 18.71 47.46 19.11C48.12 19.51 48.69 20.08 49.17 20.82C49.65 21.56 49.89 22.52 49.89 23.7C49.89 24.74 49.64 25.74 49.14 26.7C48.66 27.66 47.87 28.45 46.77 29.07C45.69 29.69 44.28 30 42.54 30H32.04ZM41.52 11.67H36.66V16.83H41.52C42.56 16.83 43.32 16.58 43.8 16.08C44.28 15.58 44.52 14.97 44.52 14.25C44.52 13.55 44.28 12.95 43.8 12.45C43.32 11.93 42.56 11.67 41.52 11.67ZM41.88 20.37H36.66V26.13H41.88C43.06 26.13 43.91 25.85 44.43 25.29C44.97 24.71 45.24 24.02 45.24 23.22C45.24 22.44 44.97 21.77 44.43 21.21C43.91 20.65 43.06 20.37 41.88 20.37ZM52.4095 30V14.1H56.9395V16.41H57.0895C57.2695 15.99 57.5195 15.58 57.8395 15.18C58.1595 14.78 58.5995 14.45 59.1595 14.19C59.7195 13.93 60.4395 13.8 61.3195 13.8C61.7595 13.8 62.1095 13.83 62.3695 13.89C62.6295 13.93 62.7595 13.95 62.7595 13.95V18.45C62.7595 18.45 62.6095 18.42 62.3095 18.36C62.0295 18.3 61.6595 18.27 61.1995 18.27C59.7795 18.27 58.7195 18.66 58.0195 19.44C57.3195 20.2 56.9695 21.45 56.9695 23.19V30H52.4095ZM71.917 30.3C70.517 30.3 69.307 30.07 68.287 29.61C67.267 29.13 66.427 28.5 65.767 27.72C65.107 26.92 64.607 26.03 64.267 25.05C63.947 24.07 63.787 23.06 63.787 22.02C63.787 21.02 63.937 20.04 64.237 19.08C64.557 18.1 65.037 17.21 65.677 16.41C66.337 15.61 67.167 14.98 68.167 14.52C69.187 14.04 70.387 13.8 71.767 13.8C73.227 13.8 74.517 14.12 75.637 14.76C76.777 15.4 77.667 16.35 78.307 17.61C78.947 18.85 79.267 20.36 79.267 22.14V23.25H68.377C68.437 24.21 68.767 25.04 69.367 25.74C69.987 26.44 70.837 26.79 71.917 26.79C72.537 26.79 73.037 26.7 73.417 26.52C73.817 26.32 74.127 26.1 74.347 25.86C74.567 25.6 74.717 25.37 74.797 25.17C74.877 24.97 74.917 24.87 74.917 24.87H79.117C79.117 24.87 79.067 25.06 78.967 25.44C78.887 25.8 78.707 26.25 78.427 26.79C78.147 27.33 77.737 27.87 77.197 28.41C76.677 28.95 75.987 29.4 75.127 29.76C74.267 30.12 73.197 30.3 71.917 30.3ZM68.377 20.49H74.887C74.827 19.39 74.497 18.57 73.897 18.03C73.297 17.49 72.557 17.22 71.677 17.22C70.797 17.22 70.047 17.51 69.427 18.09C68.807 18.65 68.457 19.45 68.377 20.49ZM89.7155 30.3C88.3155 30.3 87.1055 30.07 86.0855 29.61C85.0655 29.13 84.2255 28.5 83.5655 27.72C82.9055 26.92 82.4055 26.03 82.0655 25.05C81.7455 24.07 81.5855 23.06 81.5855 22.02C81.5855 21.02 81.7355 20.04 82.0355 19.08C82.3555 18.1 82.8355 17.21 83.4755 16.41C84.1355 15.61 84.9655 14.98 85.9655 14.52C86.9855 14.04 88.1855 13.8 89.5655 13.8C91.0255 13.8 92.3155 14.12 93.4355 14.76C94.5755 15.4 95.4655 16.35 96.1055 17.61C96.7455 18.85 97.0655 20.36 97.0655 22.14V23.25H86.1755C86.2355 24.21 86.5655 25.04 87.1655 25.74C87.7855 26.44 88.6355 26.79 89.7155 26.79C90.3355 26.79 90.8355 26.7 91.2155 26.52C91.6155 26.32 91.9255 26.1 92.1455 25.86C92.3655 25.6 92.5155 25.37 92.5955 25.17C92.6755 24.97 92.7155 24.87 92.7155 24.87H96.9155C96.9155 24.87 96.8655 25.06 96.7655 25.44C96.6855 25.8 96.5055 26.25 96.2255 26.79C95.9455 27.33 95.5355 27.87 94.9955 28.41C94.4755 28.95 93.7855 29.4 92.9255 29.76C92.0655 30.12 90.9955 30.3 89.7155 30.3ZM86.1755 20.49H92.6855C92.6255 19.39 92.2955 18.57 91.6955 18.03C91.0955 17.49 90.3555 17.22 89.4755 17.22C88.5955 17.22 87.8455 17.51 87.2255 18.09C86.6055 18.65 86.2555 19.45 86.1755 20.49ZM106.374 30.3C105.194 30.3 104.164 30.07 103.284 29.61C102.424 29.13 101.704 28.5 101.124 27.72C100.544 26.92 100.104 26.03 99.8039 25.05C99.5239 24.07 99.3839 23.07 99.3839 22.05C99.3839 21.03 99.5239 20.03 99.8039 19.05C100.104 18.07 100.544 17.19 101.124 16.41C101.704 15.61 102.424 14.98 103.284 14.52C104.164 14.04 105.194 13.8 106.374 13.8C107.394 13.8 108.234 13.97 108.894 14.31C109.554 14.63 110.054 14.98 110.394 15.36C110.754 15.74 110.974 16 111.054 16.14H111.294V7.2H115.854V30H111.294V27.96H111.054C110.974 28.1 110.754 28.36 110.394 28.74C110.054 29.12 109.554 29.48 108.894 29.82C108.234 30.14 107.394 30.3 106.374 30.3ZM107.694 26.61C108.514 26.61 109.194 26.39 109.734 25.95C110.294 25.49 110.704 24.91 110.964 24.21C111.244 23.51 111.384 22.79 111.384 22.05C111.384 21.31 111.244 20.59 110.964 19.89C110.704 19.19 110.294 18.62 109.734 18.18C109.194 17.72 108.514 17.49 107.694 17.49C106.874 17.49 106.184 17.72 105.624 18.18C105.084 18.62 104.674 19.19 104.394 19.89C104.134 20.59 104.004 21.31 104.004 22.05C104.004 22.79 104.134 23.51 104.394 24.21C104.674 24.91 105.084 25.49 105.624 25.95C106.184 26.39 106.874 26.61 107.694 26.61ZM119.333 35.85V14.1H123.893V16.14H124.103C124.203 16 124.423 15.74 124.763 15.36C125.123 14.98 125.633 14.63 126.293 14.31C126.953 13.97 127.793 13.8 128.813 13.8C129.993 13.8 131.013 14.04 131.873 14.52C132.753 14.98 133.483 15.61 134.063 16.41C134.643 17.19 135.073 18.07 135.353 19.05C135.653 20.03 135.803 21.03 135.803 22.05C135.803 23.07 135.653 24.07 135.353 25.05C135.073 26.03 134.643 26.92 134.063 27.72C133.483 28.5 132.753 29.13 131.873 29.61C131.013 30.07 129.993 30.3 128.813 30.3C127.793 30.3 126.953 30.14 126.293 29.82C125.633 29.48 125.123 29.12 124.763 28.74C124.423 28.36 124.203 28.1 124.103 27.96H123.893V35.85H119.333ZM123.803 22.05C123.803 22.79 123.933 23.51 124.193 24.21C124.473 24.91 124.883 25.49 125.423 25.95C125.983 26.39 126.673 26.61 127.493 26.61C128.313 26.61 128.993 26.39 129.533 25.95C130.093 25.49 130.503 24.91 130.763 24.21C131.043 23.51 131.183 22.79 131.183 22.05C131.183 21.31 131.043 20.59 130.763 19.89C130.503 19.19 130.093 18.62 129.533 18.18C128.993 17.72 128.313 17.49 127.493 17.49C126.673 17.49 125.983 17.72 125.423 18.18C124.883 18.62 124.473 19.19 124.193 19.89C123.933 20.59 123.803 21.31 123.803 22.05ZM146.246 30.3C144.846 30.3 143.636 30.07 142.616 29.61C141.596 29.13 140.756 28.5 140.096 27.72C139.436 26.92 138.936 26.03 138.596 25.05C138.276 24.07 138.116 23.06 138.116 22.02C138.116 21.02 138.266 20.04 138.566 19.08C138.886 18.1 139.366 17.21 140.006 16.41C140.666 15.61 141.496 14.98 142.496 14.52C143.516 14.04 144.716 13.8 146.096 13.8C147.556 13.8 148.846 14.12 149.966 14.76C151.106 15.4 151.996 16.35 152.636 17.61C153.276 18.85 153.596 20.36 153.596 22.14V23.25H142.706C142.766 24.21 143.096 25.04 143.696 25.74C144.316 26.44 145.166 26.79 146.246 26.79C146.866 26.79 147.366 26.7 147.746 26.52C148.146 26.32 148.456 26.1 148.676 25.86C148.896 25.6 149.046 25.37 149.126 25.17C149.206 24.97 149.246 24.87 149.246 24.87H153.446C153.446 24.87 153.396 25.06 153.296 25.44C153.216 25.8 153.036 26.25 152.756 26.79C152.476 27.33 152.066 27.87 151.526 28.41C151.006 28.95 150.316 29.4 149.456 29.76C148.596 30.12 147.526 30.3 146.246 30.3ZM142.706 20.49H149.216C149.156 19.39 148.826 18.57 148.226 18.03C147.626 17.49 146.886 17.22 146.006 17.22C145.126 17.22 144.376 17.51 143.756 18.09C143.136 18.65 142.786 19.45 142.706 20.49ZM162.904 30.3C161.724 30.3 160.694 30.07 159.814 29.61C158.954 29.13 158.234 28.5 157.654 27.72C157.074 26.92 156.634 26.03 156.334 25.05C156.054 24.07 155.914 23.07 155.914 22.05C155.914 21.03 156.054 20.03 156.334 19.05C156.634 18.07 157.074 17.19 157.654 16.41C158.234 15.61 158.954 14.98 159.814 14.52C160.694 14.04 161.724 13.8 162.904 13.8C163.924 13.8 164.764 13.97 165.424 14.31C166.084 14.63 166.584 14.98 166.924 15.36C167.284 15.74 167.504 16 167.584 16.14H167.824V7.2H172.384V30H167.824V27.96H167.584C167.504 28.1 167.284 28.36 166.924 28.74C166.584 29.12 166.084 29.48 165.424 29.82C164.764 30.14 163.924 30.3 162.904 30.3ZM164.224 26.61C165.044 26.61 165.724 26.39 166.264 25.95C166.824 25.49 167.234 24.91 167.494 24.21C167.774 23.51 167.914 22.79 167.914 22.05C167.914 21.31 167.774 20.59 167.494 19.89C167.234 19.19 166.824 18.62 166.264 18.18C165.724 17.72 165.044 17.49 164.224 17.49C163.404 17.49 162.714 17.72 162.154 18.18C161.614 18.62 161.204 19.19 160.924 19.89C160.664 20.59 160.534 21.31 160.534 22.05C160.534 22.79 160.664 23.51 160.924 24.21C161.204 24.91 161.614 25.49 162.154 25.95C162.714 26.39 163.404 26.61 164.224 26.61ZM178.263 11.94C177.463 11.94 176.813 11.69 176.313 11.19C175.813 10.67 175.563 10.06 175.563 9.36C175.563 8.62 175.813 8 176.313 7.5C176.813 6.98 177.463 6.72 178.263 6.72C179.023 6.72 179.663 6.98 180.183 7.5C180.703 8 180.963 8.62 180.963 9.36C180.963 10.06 180.703 10.67 180.183 11.19C179.663 11.69 179.023 11.94 178.263 11.94ZM175.983 30V14.1H180.543V30H175.983ZM190.62 13.8C191.64 13.8 192.48 13.97 193.14 14.31C193.8 14.63 194.3 14.98 194.64 15.36C195 15.74 195.22 16 195.3 16.14H195.54V14.1H200.1V30H195.54V27.96H195.3C195.22 28.1 195 28.36 194.64 28.74C194.3 29.12 193.8 29.48 193.14 29.82C192.48 30.14 191.64 30.3 190.62 30.3C189.44 30.3 188.41 30.07 187.53 29.61C186.67 29.13 185.95 28.5 185.37 27.72C184.79 26.92 184.35 26.03 184.05 25.05C183.77 24.07 183.63 23.07 183.63 22.05C183.63 21.03 183.77 20.03 184.05 19.05C184.35 18.07 184.79 17.19 185.37 16.41C185.95 15.61 186.67 14.98 187.53 14.52C188.41 14.04 189.44 13.8 190.62 13.8ZM191.94 17.49C191.12 17.49 190.43 17.72 189.87 18.18C189.33 18.62 188.92 19.19 188.64 19.89C188.38 20.59 188.25 21.31 188.25 22.05C188.25 22.79 188.38 23.51 188.64 24.21C188.92 24.91 189.33 25.49 189.87 25.95C190.43 26.39 191.12 26.61 191.94 26.61C192.76 26.61 193.44 26.39 193.98 25.95C194.54 25.49 194.95 24.91 195.21 24.21C195.49 23.51 195.63 22.79 195.63 22.05C195.63 21.31 195.49 20.59 195.21 19.89C194.95 19.19 194.54 18.62 193.98 18.18C193.44 17.72 192.76 17.49 191.94 17.49Z" fill="black"/>
<path fill-rule="evenodd" clip-rule="evenodd" d="M18.5658 3.07857C20.2598 -0.247612 24.2394 0.0197217 25.8703 1.28101C28.9578 3.66857 27.9903 7.22108 26.1032 7.0012C24.9204 6.86332 23.9576 4.01128 21.8445 5.65324C24.5069 13.881 20.8658 17.8281 15.9771 19.1875C15.7879 19.226 14.5704 19.3899 14.4503 19.8928C13.812 22.5648 15.9102 23.8656 17.1693 24.7913C20.4921 27.2349 23.1045 29.955 22.82 33.2907C24.2086 33.2178 24.7538 33.0556 25.2489 31.8869C25.5345 31.212 26.0012 30.9787 25.9804 31.9503C25.9354 34.0415 24.7886 35.5812 22.7017 35.6817C20.7539 35.6979 18.3042 35.6996 15.9728 35.6974H13.781C13.4789 35.6974 13.2968 35.562 13.2216 35.3733C13.1707 35.2457 13.162 35.0913 13.1924 34.9321C13.2243 34.7651 13.2989 34.5969 13.4128 34.4505C13.673 34.1169 14.1436 33.897 14.7944 34.0619C14.92 34.0934 15.0473 34.017 15.0786 33.8914C15.1005 33.8046 15.0704 33.7167 15.0081 33.6604C13.9258 32.5788 13.6168 31.5182 13.7752 30.6324C13.8562 30.1799 14.0589 29.7704 14.342 29.4255C14.6268 29.0785 14.9943 28.7967 15.402 28.6021C16.2223 28.2106 17.2006 28.178 17.9906 28.6855C18.0995 28.7553 18.2444 28.7238 18.3144 28.6148C18.3844 28.5057 18.3525 28.361 18.2436 28.291C17.3061 27.6889 16.1569 27.722 15.2002 28.1784C14.7334 28.401 14.311 28.7261 13.9806 29.1283C13.6487 29.5328 13.4105 30.015 13.3149 30.5497C13.1543 31.4471 13.3939 32.4851 14.2634 33.5378C13.7222 33.5652 13.309 33.8225 13.044 34.1624C12.8825 34.3697 12.777 34.6078 12.7317 34.844C12.6851 35.0877 12.702 35.333 12.7867 35.5456C12.8078 35.5984 12.8327 35.6491 12.8617 35.6972H9.53264C8.46958 35.6972 7.65397 34.8122 9.07802 33.8144C7.73132 26.3807 10.8994 21.1108 9.4347 19.6461C7.31286 19.4185 5.35128 18.8599 3.92955 18.0953C-0.766962 15.5691 -0.556566 10.6368 0.983155 10.5913C4.61857 10.4839 3.39131 8.02863 4.98278 5.10533C4.46798 4.40628 4.52475 4.27343 3.20455 5.09763C0.982798 6.48462 0.974558 2.72672 3.22424 0.976245C4.80067 -0.250303 7.45271 -0.875217 8.53869 2.54909C11.86 1.55675 15.4992 2.12903 18.5658 3.07857Z" fill="#24AAD5"/>
<path fill-rule="evenodd" clip-rule="evenodd" d="M18.566 3.0786C20.2601 -0.247587 24.2396 0.0197465 25.8705 1.28103C28.958 3.66859 27.9905 7.2211 26.1034 7.00122C24.9206 6.86335 23.9578 4.0113 21.8447 5.65327C23.3015 10.1551 22.8709 13.3753 21.3819 15.5919C21.8121 12.963 20.7149 9.92918 14.6263 11.7695C10.3001 13.0772 7.2291 10.7632 8.30918 6.34318C8.8818 3.99985 11.0404 1.96449 12.9679 2.044C14.9098 2.12421 16.8295 2.54089 18.566 3.0786Z" fill="#1D8AC0"/>
<path fill-rule="evenodd" clip-rule="evenodd" d="M3.89698 10.7531C4.90974 10.7343 5.78855 10.8685 5.80162 11.3849C5.81076 11.7428 5.3076 12.0017 4.92316 12.4372C4.48662 12.9316 4.31884 13.1815 4.19314 13.1803C3.57145 13.1744 2.60418 12.0814 2.58914 11.5546C2.5741 11.0276 2.88441 10.7719 3.89698 10.7531Z" fill="white"/>
<path fill-rule="evenodd" clip-rule="evenodd" d="M11.3012 10.4311C12.3905 10.6716 13.0353 9.16265 13.201 8.2781C13.4499 6.94985 10.6574 6.4073 10.3933 7.81703C10.2277 8.70157 10.2118 10.1908 11.3012 10.4311Z" fill="white"/>
<path fill-rule="evenodd" clip-rule="evenodd" d="M5.68428 10.0196C6.48825 10.1394 6.93697 8.76348 7.04422 7.97473C7.2052 6.79026 5.14549 6.548 4.97467 7.80498C4.8676 8.59391 4.88031 9.89996 5.68428 10.0196Z" fill="white"/>
</svg>
