<svg width="190" height="36" viewBox="0 0 190 36" fill="none" xmlns="http://www.w3.org/2000/svg">
<path d="M30.2338 28V7.28H39.2778C40.6032 7.28 41.7325 7.51333 42.6658 7.98C43.5992 8.44667 44.3085 9.072 44.7938 9.856C45.2978 10.64 45.5498 11.4987 45.5498 12.432C45.5498 13.384 45.3725 14.168 45.0178 14.784C44.6818 15.4 44.2712 15.8853 43.7858 16.24C43.3192 16.576 42.8898 16.8093 42.4978 16.94V17.136C42.9832 17.2667 43.5245 17.5187 44.1218 17.892C44.7378 18.2653 45.2698 18.7973 45.7178 19.488C46.1658 20.16 46.3898 21.0373 46.3898 22.12C46.3898 23.0907 46.1565 24.0333 45.6898 24.948C45.2232 25.844 44.4858 26.5813 43.4778 27.16C42.4698 27.72 41.1352 28 39.4738 28H30.2338ZM38.7738 10.5H34.0418V15.904H38.7738C39.8565 15.904 40.6405 15.6333 41.1258 15.092C41.6112 14.5507 41.8538 13.916 41.8538 13.188C41.8538 12.4787 41.6112 11.8533 41.1258 11.312C40.6405 10.7707 39.8565 10.5 38.7738 10.5ZM39.0538 18.816H34.0418V24.78H39.0538C40.2858 24.78 41.1818 24.4813 41.7418 23.884C42.3018 23.2867 42.5818 22.5867 42.5818 21.784C42.5818 21 42.3018 20.3093 41.7418 19.712C41.1818 19.1147 40.2858 18.816 39.0538 18.816ZM48.9446 28V13.16H52.6406V15.204H52.7806C53.042 14.6253 53.4713 14.0933 54.0686 13.608C54.6659 13.1227 55.5619 12.88 56.7566 12.88C57.13 12.88 57.438 12.908 57.6806 12.964C57.9233 13.0013 58.0446 13.02 58.0446 13.02V16.632C58.0446 16.632 57.9046 16.6133 57.6246 16.576C57.3633 16.5387 57.0366 16.52 56.6446 16.52C55.338 16.52 54.3486 16.884 53.6766 17.612C53.0046 18.34 52.6686 19.516 52.6686 21.14V28H48.9446ZM66.4081 28.28C65.1388 28.28 64.0374 28.0653 63.1041 27.636C62.1894 27.188 61.4241 26.6 60.8081 25.872C60.2108 25.1253 59.7628 24.2947 59.4641 23.38C59.1654 22.4653 59.0161 21.532 59.0161 20.58C59.0161 19.628 59.1561 18.704 59.4361 17.808C59.7348 16.8933 60.1734 16.0627 60.7521 15.316C61.3494 14.5693 62.1054 13.9813 63.0201 13.552C63.9348 13.104 65.0174 12.88 66.2681 12.88C67.6121 12.88 68.7974 13.1787 69.8241 13.776C70.8508 14.3733 71.6534 15.2507 72.2321 16.408C72.8108 17.5467 73.1001 18.9653 73.1001 20.664V21.616H62.7681C62.8241 22.624 63.1694 23.5013 63.8041 24.248C64.4388 24.976 65.3068 25.34 66.4081 25.34C67.0428 25.34 67.5654 25.2373 67.9761 25.032C68.3868 24.8267 68.7041 24.5933 68.9281 24.332C69.1521 24.052 69.3108 23.8187 69.4041 23.632C69.4974 23.4267 69.5441 23.324 69.5441 23.324H72.9881C72.9881 23.324 72.9414 23.492 72.8481 23.828C72.7548 24.1453 72.5774 24.556 72.3161 25.06C72.0734 25.5453 71.7094 26.04 71.2241 26.544C70.7388 27.0293 70.1041 27.44 69.3201 27.776C68.5361 28.112 67.5654 28.28 66.4081 28.28ZM62.7681 19.18H69.5161C69.4601 18.0227 69.1148 17.164 68.4801 16.604C67.8454 16.044 67.0988 15.764 66.2401 15.764C65.2881 15.764 64.4948 16.072 63.8601 16.688C63.2254 17.2853 62.8614 18.116 62.7681 19.18ZM82.8286 28.28C81.5592 28.28 80.4579 28.0653 79.5246 27.636C78.6099 27.188 77.8446 26.6 77.2286 25.872C76.6312 25.1253 76.1832 24.2947 75.8846 23.38C75.5859 22.4653 75.4366 21.532 75.4366 20.58C75.4366 19.628 75.5766 18.704 75.8566 17.808C76.1552 16.8933 76.5939 16.0627 77.1726 15.316C77.7699 14.5693 78.5259 13.9813 79.4406 13.552C80.3552 13.104 81.4379 12.88 82.6886 12.88C84.0326 12.88 85.2179 13.1787 86.2446 13.776C87.2712 14.3733 88.0739 15.2507 88.6526 16.408C89.2312 17.5467 89.5206 18.9653 89.5206 20.664V21.616H79.1886C79.2446 22.624 79.5899 23.5013 80.2246 24.248C80.8592 24.976 81.7272 25.34 82.8286 25.34C83.4632 25.34 83.9859 25.2373 84.3966 25.032C84.8072 24.8267 85.1246 24.5933 85.3486 24.332C85.5726 24.052 85.7312 23.8187 85.8246 23.632C85.9179 23.4267 85.9646 23.324 85.9646 23.324H89.4086C89.4086 23.324 89.3619 23.492 89.2686 23.828C89.1752 24.1453 88.9979 24.556 88.7366 25.06C88.4939 25.5453 88.1299 26.04 87.6446 26.544C87.1592 27.0293 86.5246 27.44 85.7406 27.776C84.9566 28.112 83.9859 28.28 82.8286 28.28ZM79.1886 19.18H85.9366C85.8806 18.0227 85.5352 17.164 84.9006 16.604C84.2659 16.044 83.5192 15.764 82.6606 15.764C81.7086 15.764 80.9152 16.072 80.2806 16.688C79.6459 17.2853 79.2819 18.116 79.1886 19.18ZM98.437 28.28C97.3357 28.28 96.3744 28.0653 95.553 27.636C94.7317 27.188 94.041 26.6 93.481 25.872C92.9397 25.1253 92.529 24.2947 92.249 23.38C91.9877 22.4653 91.857 21.532 91.857 20.58C91.857 19.628 91.9877 18.6947 92.249 17.78C92.529 16.8653 92.9397 16.044 93.481 15.316C94.041 14.5693 94.7317 13.9813 95.553 13.552C96.3744 13.104 97.3357 12.88 98.437 12.88C99.389 12.88 100.173 13.0387 100.789 13.356C101.405 13.6547 101.89 13.9907 102.245 14.364C102.6 14.7187 102.842 15.008 102.973 15.232H103.141V6.72H106.865V28H103.141V25.928H102.973C102.842 26.152 102.6 26.4507 102.245 26.824C101.89 27.1973 101.405 27.5333 100.789 27.832C100.173 28.1307 99.389 28.28 98.437 28.28ZM99.417 25.228C100.257 25.228 100.957 25.004 101.517 24.556C102.077 24.0893 102.497 23.5013 102.777 22.792C103.057 22.0827 103.197 21.3453 103.197 20.58C103.197 19.8147 103.057 19.0773 102.777 18.368C102.497 17.6587 102.077 17.08 101.517 16.632C100.957 16.1653 100.257 15.932 99.417 15.932C98.577 15.932 97.8677 16.1653 97.289 16.632C96.729 17.08 96.309 17.6587 96.029 18.368C95.749 19.0773 95.609 19.8147 95.609 20.58C95.609 21.3453 95.749 22.0827 96.029 22.792C96.309 23.5013 96.729 24.0893 97.289 24.556C97.8677 25.004 98.577 25.228 99.417 25.228ZM110.34 33.488V13.16H114.064V15.232H114.26C114.391 15.008 114.624 14.7093 114.96 14.336C115.315 13.9627 115.8 13.6267 116.416 13.328C117.032 13.0293 117.816 12.88 118.768 12.88C119.888 12.88 120.859 13.104 121.68 13.552C122.501 13.9813 123.183 14.5693 123.724 15.316C124.265 16.044 124.667 16.8653 124.928 17.78C125.208 18.6947 125.348 19.628 125.348 20.58C125.348 21.532 125.208 22.4653 124.928 23.38C124.667 24.2947 124.265 25.1253 123.724 25.872C123.183 26.6 122.501 27.188 121.68 27.636C120.859 28.0653 119.888 28.28 118.768 28.28C117.816 28.28 117.032 28.1307 116.416 27.832C115.8 27.5147 115.315 27.1693 114.96 26.796C114.624 26.4227 114.391 26.1333 114.26 25.928H114.064V33.488H110.34ZM114.008 20.58C114.008 21.3453 114.148 22.0827 114.428 22.792C114.708 23.5013 115.128 24.0893 115.688 24.556C116.248 25.004 116.948 25.228 117.788 25.228C118.647 25.228 119.356 25.004 119.916 24.556C120.476 24.0893 120.896 23.5013 121.176 22.792C121.456 22.0827 121.596 21.3453 121.596 20.58C121.596 19.8147 121.456 19.0773 121.176 18.368C120.896 17.6587 120.476 17.08 119.916 16.632C119.356 16.1653 118.647 15.932 117.788 15.932C116.948 15.932 116.248 16.1653 115.688 16.632C115.128 17.08 114.708 17.6587 114.428 18.368C114.148 19.0773 114.008 19.8147 114.008 20.58ZM135.07 28.28C133.801 28.28 132.7 28.0653 131.766 27.636C130.852 27.188 130.086 26.6 129.47 25.872C128.873 25.1253 128.425 24.2947 128.126 23.38C127.828 22.4653 127.678 21.532 127.678 20.58C127.678 19.628 127.818 18.704 128.098 17.808C128.397 16.8933 128.836 16.0627 129.414 15.316C130.012 14.5693 130.768 13.9813 131.682 13.552C132.597 13.104 133.68 12.88 134.93 12.88C136.274 12.88 137.46 13.1787 138.486 13.776C139.513 14.3733 140.316 15.2507 140.894 16.408C141.473 17.5467 141.762 18.9653 141.762 20.664V21.616H131.43C131.486 22.624 131.832 23.5013 132.466 24.248C133.101 24.976 133.969 25.34 135.07 25.34C135.705 25.34 136.228 25.2373 136.638 25.032C137.049 24.8267 137.366 24.5933 137.59 24.332C137.814 24.052 137.973 23.8187 138.066 23.632C138.16 23.4267 138.206 23.324 138.206 23.324H141.65C141.65 23.324 141.604 23.492 141.51 23.828C141.417 24.1453 141.24 24.556 140.978 25.06C140.736 25.5453 140.372 26.04 139.886 26.544C139.401 27.0293 138.766 27.44 137.982 27.776C137.198 28.112 136.228 28.28 135.07 28.28ZM131.43 19.18H138.178C138.122 18.0227 137.777 17.164 137.142 16.604C136.508 16.044 135.761 15.764 134.902 15.764C133.95 15.764 133.157 16.072 132.522 16.688C131.888 17.2853 131.524 18.116 131.43 19.18ZM150.679 28.28C149.578 28.28 148.616 28.0653 147.795 27.636C146.974 27.188 146.283 26.6 145.723 25.872C145.182 25.1253 144.771 24.2947 144.491 23.38C144.23 22.4653 144.099 21.532 144.099 20.58C144.099 19.628 144.23 18.6947 144.491 17.78C144.771 16.8653 145.182 16.044 145.723 15.316C146.283 14.5693 146.974 13.9813 147.795 13.552C148.616 13.104 149.578 12.88 150.679 12.88C151.631 12.88 152.415 13.0387 153.031 13.356C153.647 13.6547 154.132 13.9907 154.487 14.364C154.842 14.7187 155.084 15.008 155.215 15.232H155.383V6.72H159.107V28H155.383V25.928H155.215C155.084 26.152 154.842 26.4507 154.487 26.824C154.132 27.1973 153.647 27.5333 153.031 27.832C152.415 28.1307 151.631 28.28 150.679 28.28ZM151.659 25.228C152.499 25.228 153.199 25.004 153.759 24.556C154.319 24.0893 154.739 23.5013 155.019 22.792C155.299 22.0827 155.439 21.3453 155.439 20.58C155.439 19.8147 155.299 19.0773 155.019 18.368C154.739 17.6587 154.319 17.08 153.759 16.632C153.199 16.1653 152.499 15.932 151.659 15.932C150.819 15.932 150.11 16.1653 149.531 16.632C148.971 17.08 148.551 17.6587 148.271 18.368C147.991 19.0773 147.851 19.8147 147.851 20.58C147.851 21.3453 147.991 22.0827 148.271 22.792C148.551 23.5013 148.971 24.0893 149.531 24.556C150.11 25.004 150.819 25.228 151.659 25.228ZM164.542 10.864C163.889 10.864 163.347 10.6493 162.918 10.22C162.507 9.79067 162.302 9.27733 162.302 8.68C162.302 8.08266 162.507 7.56933 162.918 7.14C163.347 6.71067 163.889 6.496 164.542 6.496C165.195 6.496 165.737 6.71067 166.166 7.14C166.595 7.56933 166.81 8.08266 166.81 8.68C166.81 9.27733 166.595 9.79067 166.166 10.22C165.737 10.6493 165.195 10.864 164.542 10.864ZM162.694 28V13.16H166.418V28H162.694ZM176.082 12.88C177.034 12.88 177.818 13.0387 178.434 13.356C179.05 13.6547 179.536 13.9907 179.89 14.364C180.245 14.7187 180.488 15.008 180.618 15.232H180.786V13.16H184.51V28H180.786V25.928H180.618C180.488 26.152 180.245 26.4507 179.89 26.824C179.536 27.1973 179.05 27.5333 178.434 27.832C177.818 28.1307 177.034 28.28 176.082 28.28C174.981 28.28 174.02 28.0653 173.198 27.636C172.377 27.188 171.686 26.6 171.126 25.872C170.585 25.1253 170.174 24.2947 169.894 23.38C169.633 22.4653 169.502 21.532 169.502 20.58C169.502 19.628 169.633 18.6947 169.894 17.78C170.174 16.8653 170.585 16.044 171.126 15.316C171.686 14.5693 172.377 13.9813 173.198 13.552C174.02 13.104 174.981 12.88 176.082 12.88ZM177.062 15.932C176.222 15.932 175.513 16.1653 174.934 16.632C174.374 17.08 173.954 17.6587 173.674 18.368C173.394 19.0773 173.254 19.8147 173.254 20.58C173.254 21.3453 173.394 22.0827 173.674 22.792C173.954 23.5013 174.374 24.0893 174.934 24.556C175.513 25.004 176.222 25.228 177.062 25.228C177.902 25.228 178.602 25.004 179.162 24.556C179.722 24.0893 180.142 23.5013 180.422 22.792C180.702 22.0827 180.842 21.3453 180.842 20.58C180.842 19.8147 180.702 19.0773 180.422 18.368C180.142 17.6587 179.722 17.08 179.162 16.632C178.602 16.1653 177.902 15.932 177.062 15.932Z" fill="white"/>
<path fill-rule="evenodd" clip-rule="evenodd" d="M17.4629 2.91654C19.0562 -0.23458 22.7994 0.0186838 24.3335 1.21359C27.2375 3.47549 26.3275 6.84102 24.5525 6.63272C23.44 6.50209 22.5344 3.80016 20.5468 5.3557C23.051 13.1504 19.6262 16.8898 15.028 18.1776C14.85 18.2141 13.7048 18.3694 13.5919 18.8458C12.9915 21.3772 14.965 22.6095 16.1493 23.4865C19.2747 25.8015 21.732 28.3784 21.4644 31.5386C22.7705 31.4695 23.2833 31.3158 23.749 30.2086C24.0176 29.5693 24.4566 29.3482 24.437 30.2687C24.3947 32.2498 23.316 33.7085 21.3531 33.8037C19.521 33.8191 17.2168 33.8207 15.0239 33.8186H12.9623C12.6782 33.8186 12.5069 33.6903 12.4362 33.5115C12.3883 33.3907 12.3801 33.2444 12.4087 33.0936C12.4387 32.9354 12.5089 32.776 12.616 32.6373C12.8607 32.3213 13.3034 32.1129 13.9155 32.2692C14.0337 32.299 14.1534 32.2266 14.1828 32.1076C14.2034 32.0254 14.1751 31.9421 14.1165 31.8888C13.0985 30.8641 12.8079 29.8593 12.9569 29.0202C13.0331 28.5915 13.2237 28.2035 13.49 27.8768C13.7579 27.5481 14.1036 27.2811 14.487 27.0967C15.2586 26.7258 16.1788 26.6949 16.9219 27.1757C17.0243 27.2419 17.1606 27.212 17.2264 27.1088C17.2923 27.0054 17.2623 26.8683 17.1598 26.802C16.278 26.2316 15.1971 26.2629 14.2972 26.6953C13.8581 26.9062 13.4608 27.2142 13.1501 27.5952C12.8379 27.9784 12.6138 28.4353 12.5239 28.9418C12.3729 29.792 12.5982 30.7754 13.4161 31.7727C12.907 31.7986 12.5184 32.0424 12.2691 32.3644C12.1172 32.5608 12.018 32.7863 11.9754 33.0101C11.9315 33.241 11.9474 33.4734 12.0271 33.6748C12.0469 33.7248 12.0704 33.7728 12.0976 33.8184H8.96635C7.96644 33.8184 7.19928 32.98 8.53873 32.0347C7.27203 24.9922 10.2519 19.9997 8.87422 18.6121C6.87843 18.3965 5.03338 17.8673 3.69611 17.1429C-0.7214 14.7497 -0.523503 10.077 0.92475 10.0339C4.3442 9.93212 3.18985 7.60607 4.68677 4.83663C4.20256 4.17437 4.25595 4.04851 3.01418 4.82933C0.924414 6.14332 0.916664 2.58321 3.0327 0.924864C4.51548 -0.237129 7.00997 -0.829153 8.03144 2.41493C11.1554 1.47482 14.5785 2.01698 17.4629 2.91654Z" fill="#0973EC"/>
<path fill-rule="evenodd" clip-rule="evenodd" d="M17.4631 2.91654C19.0565 -0.234582 22.7996 0.0186815 24.3336 1.21358C27.2377 3.47548 26.3277 6.84102 24.5527 6.63271C23.4402 6.5021 22.5346 3.80015 20.547 5.3557C21.9173 9.6206 21.5122 12.6713 20.1117 14.7712C20.5163 12.2807 19.4843 9.40657 13.7574 11.15C9.68822 12.3889 6.79965 10.1967 7.81557 6.0093C8.35417 3.78931 10.3845 1.86107 12.1975 1.9364C14.0241 2.01238 15.8297 2.40713 17.4631 2.91654Z" fill="#F27108"/>
<path fill-rule="evenodd" clip-rule="evenodd" d="M3.66548 10.1871C4.61807 10.1693 5.44468 10.2965 5.45697 10.7857C5.46557 11.1248 4.9923 11.37 4.6307 11.7826C4.22009 12.251 4.06228 12.4877 3.94404 12.4866C3.35929 12.481 2.44948 11.4455 2.43533 10.9465C2.42118 10.4472 2.71306 10.205 3.66548 10.1871Z" fill="white"/>
<path fill-rule="evenodd" clip-rule="evenodd" d="M10.6299 9.8821C11.6544 10.1099 12.2609 8.68041 12.4168 7.84242C12.6509 6.58408 10.0243 6.07008 9.77589 7.40562C9.62012 8.2436 9.60517 9.65445 10.6299 9.8821Z" fill="white"/>
<path fill-rule="evenodd" clip-rule="evenodd" d="M5.34661 9.49228C6.10282 9.60578 6.52488 8.30227 6.62576 7.55504C6.77718 6.43291 4.83983 6.2034 4.67916 7.39422C4.57845 8.14163 4.5904 9.37894 5.34661 9.49228Z" fill="white"/>
</svg>
