<svg width="155" height="28" viewBox="0 0 155 28" fill="none" xmlns="http://www.w3.org/2000/svg">
<path d="M0.0160001 22V1.28H9.06C10.3853 1.28 11.5147 1.51333 12.448 1.98C13.3813 2.44667 14.0907 3.072 14.576 3.856C15.08 4.64 15.332 5.49867 15.332 6.432C15.332 7.384 15.1547 8.168 14.8 8.784C14.464 9.4 14.0533 9.88533 13.568 10.24C13.1013 10.576 12.672 10.8093 12.28 10.94V11.136C12.7653 11.2667 13.3067 11.5187 13.904 11.892C14.52 12.2653 15.052 12.7973 15.5 13.488C15.948 14.16 16.172 15.0373 16.172 16.12C16.172 17.0907 15.9387 18.0333 15.472 18.948C15.0053 19.844 14.268 20.5813 13.26 21.16C12.252 21.72 10.9173 22 9.256 22H0.0160001ZM8.556 4.5H3.824V9.904H8.556C9.63867 9.904 10.4227 9.63333 10.908 9.092C11.3933 8.55067 11.636 7.916 11.636 7.188C11.636 6.47867 11.3933 5.85333 10.908 5.312C10.4227 4.77067 9.63867 4.5 8.556 4.5ZM8.836 12.816H3.824V18.78H8.836C10.068 18.78 10.964 18.4813 11.524 17.884C12.084 17.2867 12.364 16.5867 12.364 15.784C12.364 15 12.084 14.3093 11.524 13.712C10.964 13.1147 10.068 12.816 8.836 12.816ZM18.7268 22V7.16H22.4228V9.204H22.5628C22.8241 8.62533 23.2534 8.09333 23.8508 7.608C24.4481 7.12267 25.3441 6.88 26.5388 6.88C26.9121 6.88 27.2201 6.908 27.4628 6.964C27.7054 7.00133 27.8268 7.02 27.8268 7.02V10.632C27.8268 10.632 27.6868 10.6133 27.4068 10.576C27.1454 10.5387 26.8188 10.52 26.4268 10.52C25.1201 10.52 24.1308 10.884 23.4588 11.612C22.7868 12.34 22.4508 13.516 22.4508 15.14V22H18.7268ZM36.1902 22.28C34.9209 22.28 33.8196 22.0653 32.8862 21.636C31.9716 21.188 31.2062 20.6 30.5902 19.872C29.9929 19.1253 29.5449 18.2947 29.2462 17.38C28.9476 16.4653 28.7982 15.532 28.7982 14.58C28.7982 13.628 28.9382 12.704 29.2182 11.808C29.5169 10.8933 29.9556 10.0627 30.5342 9.316C31.1316 8.56933 31.8876 7.98133 32.8022 7.552C33.7169 7.104 34.7996 6.88 36.0502 6.88C37.3942 6.88 38.5796 7.17867 39.6062 7.776C40.6329 8.37333 41.4356 9.25067 42.0142 10.408C42.5929 11.5467 42.8823 12.9653 42.8823 14.664V15.616H32.5502C32.6062 16.624 32.9516 17.5013 33.5862 18.248C34.2209 18.976 35.0889 19.34 36.1902 19.34C36.8249 19.34 37.3476 19.2373 37.7582 19.032C38.1689 18.8267 38.4862 18.5933 38.7102 18.332C38.9342 18.052 39.0929 17.8187 39.1862 17.632C39.2796 17.4267 39.3262 17.324 39.3262 17.324H42.7703C42.7703 17.324 42.7236 17.492 42.6303 17.828C42.5369 18.1453 42.3596 18.556 42.0983 19.06C41.8556 19.5453 41.4916 20.04 41.0062 20.544C40.5209 21.0293 39.8862 21.44 39.1022 21.776C38.3182 22.112 37.3476 22.28 36.1902 22.28ZM32.5502 13.18H39.2982C39.2422 12.0227 38.8969 11.164 38.2622 10.604C37.6276 10.044 36.8809 9.764 36.0222 9.764C35.0702 9.764 34.2769 10.072 33.6422 10.688C33.0076 11.2853 32.6436 12.116 32.5502 13.18ZM52.6107 22.28C51.3414 22.28 50.2401 22.0653 49.3067 21.636C48.3921 21.188 47.6267 20.6 47.0107 19.872C46.4134 19.1253 45.9654 18.2947 45.6667 17.38C45.3681 16.4653 45.2187 15.532 45.2187 14.58C45.2187 13.628 45.3587 12.704 45.6387 11.808C45.9374 10.8933 46.3761 10.0627 46.9547 9.316C47.5521 8.56933 48.3081 7.98133 49.2227 7.552C50.1374 7.104 51.2201 6.88 52.4707 6.88C53.8147 6.88 55.0001 7.17867 56.0267 7.776C57.0534 8.37333 57.8561 9.25067 58.4347 10.408C59.0134 11.5467 59.3027 12.9653 59.3027 14.664V15.616H48.9707C49.0267 16.624 49.3721 17.5013 50.0067 18.248C50.6414 18.976 51.5094 19.34 52.6107 19.34C53.2454 19.34 53.7681 19.2373 54.1787 19.032C54.5894 18.8267 54.9067 18.5933 55.1307 18.332C55.3547 18.052 55.5134 17.8187 55.6067 17.632C55.7001 17.4267 55.7467 17.324 55.7467 17.324H59.1907C59.1907 17.324 59.1441 17.492 59.0507 17.828C58.9574 18.1453 58.7801 18.556 58.5187 19.06C58.2761 19.5453 57.9121 20.04 57.4267 20.544C56.9414 21.0293 56.3067 21.44 55.5227 21.776C54.7387 22.112 53.7681 22.28 52.6107 22.28ZM48.9707 13.18H55.7187C55.6627 12.0227 55.3174 11.164 54.6827 10.604C54.0481 10.044 53.3014 9.764 52.4427 9.764C51.4907 9.764 50.6974 10.072 50.0627 10.688C49.4281 11.2853 49.0641 12.116 48.9707 13.18ZM68.2192 22.28C67.1179 22.28 66.1565 22.0653 65.3352 21.636C64.5139 21.188 63.8232 20.6 63.2632 19.872C62.7219 19.1253 62.3112 18.2947 62.0312 17.38C61.7699 16.4653 61.6392 15.532 61.6392 14.58C61.6392 13.628 61.7699 12.6947 62.0312 11.78C62.3112 10.8653 62.7219 10.044 63.2632 9.316C63.8232 8.56933 64.5139 7.98133 65.3352 7.552C66.1565 7.104 67.1179 6.88 68.2192 6.88C69.1712 6.88 69.9552 7.03867 70.5712 7.356C71.1872 7.65467 71.6725 7.99067 72.0272 8.364C72.3819 8.71867 72.6245 9.008 72.7552 9.232H72.9232V0.719999H76.6472V22H72.9232V19.928H72.7552C72.6245 20.152 72.3819 20.4507 72.0272 20.824C71.6725 21.1973 71.1872 21.5333 70.5712 21.832C69.9552 22.1307 69.1712 22.28 68.2192 22.28ZM69.1992 19.228C70.0392 19.228 70.7392 19.004 71.2992 18.556C71.8592 18.0893 72.2792 17.5013 72.5592 16.792C72.8392 16.0827 72.9792 15.3453 72.9792 14.58C72.9792 13.8147 72.8392 13.0773 72.5592 12.368C72.2792 11.6587 71.8592 11.08 71.2992 10.632C70.7392 10.1653 70.0392 9.932 69.1992 9.932C68.3592 9.932 67.6499 10.1653 67.0712 10.632C66.5112 11.08 66.0912 11.6587 65.8112 12.368C65.5312 13.0773 65.3912 13.8147 65.3912 14.58C65.3912 15.3453 65.5312 16.0827 65.8112 16.792C66.0912 17.5013 66.5112 18.0893 67.0712 18.556C67.6499 19.004 68.3592 19.228 69.1992 19.228ZM80.1222 27.488V7.16H83.8462V9.232H84.0422C84.1729 9.008 84.4062 8.70933 84.7422 8.336C85.0969 7.96267 85.5822 7.62667 86.1982 7.328C86.8142 7.02933 87.5982 6.88 88.5502 6.88C89.6702 6.88 90.6409 7.104 91.4622 7.552C92.2836 7.98133 92.9649 8.56933 93.5062 9.316C94.0476 10.044 94.4489 10.8653 94.7102 11.78C94.9902 12.6947 95.1302 13.628 95.1302 14.58C95.1302 15.532 94.9902 16.4653 94.7102 17.38C94.4489 18.2947 94.0476 19.1253 93.5062 19.872C92.9649 20.6 92.2836 21.188 91.4622 21.636C90.6409 22.0653 89.6702 22.28 88.5502 22.28C87.5982 22.28 86.8142 22.1307 86.1982 21.832C85.5822 21.5147 85.0969 21.1693 84.7422 20.796C84.4062 20.4227 84.1729 20.1333 84.0422 19.928H83.8462V27.488H80.1222ZM83.7902 14.58C83.7902 15.3453 83.9302 16.0827 84.2102 16.792C84.4902 17.5013 84.9102 18.0893 85.4702 18.556C86.0302 19.004 86.7302 19.228 87.5702 19.228C88.4289 19.228 89.1382 19.004 89.6982 18.556C90.2582 18.0893 90.6782 17.5013 90.9582 16.792C91.2382 16.0827 91.3782 15.3453 91.3782 14.58C91.3782 13.8147 91.2382 13.0773 90.9582 12.368C90.6782 11.6587 90.2582 11.08 89.6982 10.632C89.1382 10.1653 88.4289 9.932 87.5702 9.932C86.7302 9.932 86.0302 10.1653 85.4702 10.632C84.9102 11.08 84.4902 11.6587 84.2102 12.368C83.9302 13.0773 83.7902 13.8147 83.7902 14.58ZM104.853 22.28C103.583 22.28 102.482 22.0653 101.549 21.636C100.634 21.188 99.8686 20.6 99.2526 19.872C98.6553 19.1253 98.2073 18.2947 97.9086 17.38C97.6099 16.4653 97.4606 15.532 97.4606 14.58C97.4606 13.628 97.6006 12.704 97.8806 11.808C98.1793 10.8933 98.6179 10.0627 99.1966 9.316C99.7939 8.56933 100.55 7.98133 101.465 7.552C102.379 7.104 103.462 6.88 104.713 6.88C106.057 6.88 107.242 7.17867 108.269 7.776C109.295 8.37333 110.098 9.25067 110.677 10.408C111.255 11.5467 111.545 12.9653 111.545 14.664V15.616H101.213C101.269 16.624 101.614 17.5013 102.249 18.248C102.883 18.976 103.751 19.34 104.853 19.34C105.487 19.34 106.01 19.2373 106.421 19.032C106.831 18.8267 107.149 18.5933 107.373 18.332C107.597 18.052 107.755 17.8187 107.849 17.632C107.942 17.4267 107.989 17.324 107.989 17.324H111.433C111.433 17.324 111.386 17.492 111.293 17.828C111.199 18.1453 111.022 18.556 110.761 19.06C110.518 19.5453 110.154 20.04 109.669 20.544C109.183 21.0293 108.549 21.44 107.765 21.776C106.981 22.112 106.01 22.28 104.853 22.28ZM101.213 13.18H107.961C107.905 12.0227 107.559 11.164 106.925 10.604C106.29 10.044 105.543 9.764 104.685 9.764C103.733 9.764 102.939 10.072 102.305 10.688C101.67 11.2853 101.306 12.116 101.213 13.18ZM120.461 22.28C119.36 22.28 118.398 22.0653 117.577 21.636C116.756 21.188 116.065 20.6 115.505 19.872C114.964 19.1253 114.553 18.2947 114.273 17.38C114.012 16.4653 113.881 15.532 113.881 14.58C113.881 13.628 114.012 12.6947 114.273 11.78C114.553 10.8653 114.964 10.044 115.505 9.316C116.065 8.56933 116.756 7.98133 117.577 7.552C118.398 7.104 119.36 6.88 120.461 6.88C121.413 6.88 122.197 7.03867 122.813 7.356C123.429 7.65467 123.914 7.99067 124.269 8.364C124.624 8.71867 124.866 9.008 124.997 9.232H125.165V0.719999H128.889V22H125.165V19.928H124.997C124.866 20.152 124.624 20.4507 124.269 20.824C123.914 21.1973 123.429 21.5333 122.813 21.832C122.197 22.1307 121.413 22.28 120.461 22.28ZM121.441 19.228C122.281 19.228 122.981 19.004 123.541 18.556C124.101 18.0893 124.521 17.5013 124.801 16.792C125.081 16.0827 125.221 15.3453 125.221 14.58C125.221 13.8147 125.081 13.0773 124.801 12.368C124.521 11.6587 124.101 11.08 123.541 10.632C122.981 10.1653 122.281 9.932 121.441 9.932C120.601 9.932 119.892 10.1653 119.313 10.632C118.753 11.08 118.333 11.6587 118.053 12.368C117.773 13.0773 117.633 13.8147 117.633 14.58C117.633 15.3453 117.773 16.0827 118.053 16.792C118.333 17.5013 118.753 18.0893 119.313 18.556C119.892 19.004 120.601 19.228 121.441 19.228ZM134.324 4.864C133.671 4.864 133.129 4.64933 132.7 4.22C132.289 3.79067 132.084 3.27733 132.084 2.68C132.084 2.08266 132.289 1.56933 132.7 1.14C133.129 0.710666 133.671 0.496 134.324 0.496C134.977 0.496 135.519 0.710666 135.948 1.14C136.377 1.56933 136.592 2.08266 136.592 2.68C136.592 3.27733 136.377 3.79067 135.948 4.22C135.519 4.64933 134.977 4.864 134.324 4.864ZM132.476 22V7.16H136.2V22H132.476ZM145.865 6.88C146.817 6.88 147.601 7.03867 148.217 7.356C148.833 7.65467 149.318 7.99067 149.673 8.364C150.027 8.71867 150.27 9.008 150.401 9.232H150.569V7.16H154.293V22H150.569V19.928H150.401C150.27 20.152 150.027 20.4507 149.673 20.824C149.318 21.1973 148.833 21.5333 148.217 21.832C147.601 22.1307 146.817 22.28 145.865 22.28C144.763 22.28 143.802 22.0653 142.981 21.636C142.159 21.188 141.469 20.6 140.909 19.872C140.367 19.1253 139.957 18.2947 139.677 17.38C139.415 16.4653 139.285 15.532 139.285 14.58C139.285 13.628 139.415 12.6947 139.677 11.78C139.957 10.8653 140.367 10.044 140.909 9.316C141.469 8.56933 142.159 7.98133 142.981 7.552C143.802 7.104 144.763 6.88 145.865 6.88ZM146.845 9.932C146.005 9.932 145.295 10.1653 144.717 10.632C144.157 11.08 143.737 11.6587 143.457 12.368C143.177 13.0773 143.037 13.8147 143.037 14.58C143.037 15.3453 143.177 16.0827 143.457 16.792C143.737 17.5013 144.157 18.0893 144.717 18.556C145.295 19.004 146.005 19.228 146.845 19.228C147.685 19.228 148.385 19.004 148.945 18.556C149.505 18.0893 149.925 17.5013 150.205 16.792C150.485 16.0827 150.625 15.3453 150.625 14.58C150.625 13.8147 150.485 13.0773 150.205 12.368C149.925 11.6587 149.505 11.08 148.945 10.632C148.385 10.1653 147.685 9.932 146.845 9.932Z" fill="white"/>
</svg>
